<?xml version="1.0" encoding="UTF-8"?>
<svg version="1.1" xmlns="http://www.w3.org/2000/svg" width="750" height="742">
<path d="M0 0 C1.13574463 0.00054382 2.27148926 0.00108765 3.44165039 0.00164795 C74.69598959 0.15776504 144.90755679 21.46978747 202.875 63.375 C203.89835449 64.11218262 203.89835449 64.11218262 204.94238281 64.86425781 C213.75142829 71.24435363 221.94234 77.92587941 229.875 85.375 C231.18136495 86.52782302 232.49346693 87.67419334 233.8125 88.8125 C264.2576682 115.42886408 288.90807993 146.83215424 308.61523438 182.12255859 C309.41429249 183.55126211 310.21955883 184.97652534 311.03320312 186.39697266 C329.66711376 218.9570202 341.80605212 256.73642681 348.125 293.5625 C348.27622314 294.43865967 348.42744629 295.31481934 348.58325195 296.2175293 C351.37034699 313.62467678 352.20408012 330.98768295 352.13574219 348.59521484 C352.12500898 351.87225838 352.13571878 355.14875399 352.1484375 358.42578125 C352.16036758 375.73032485 351.11200826 392.86188758 348.1875 409.9375 C348.01943848 410.91887939 347.85137695 411.90025879 347.67822266 412.91137695 C339.67968571 457.59032104 323.36263878 505.26098143 296.125 542.1328125 C295.65843994 542.76711182 295.19187988 543.40141113 294.71118164 544.05493164 C293.79898682 545.28270861 292.87417373 546.50123996 291.93530273 547.70874023 C289.52484145 550.69838075 289.52484145 550.69838075 289.07226562 554.34057617 C290.01223088 556.72279346 291.14213652 558.07166296 292.91015625 559.921875 C293.86547241 560.93036499 293.86547241 560.93036499 294.84008789 561.95922852 C295.53223389 562.67393311 296.22437988 563.3886377 296.9375 564.125 C298.0037561 565.24249634 298.0037561 565.24249634 299.09155273 566.38256836 C304.7608138 572.29612428 310.53400017 578.10705901 316.38110352 583.84472656 C319.41184428 586.83319263 322.32584801 589.85197249 325.08984375 593.08984375 C330.03306785 598.82187282 335.49221884 604.0611027 340.875 609.375 C352.75890973 621.10683045 352.75890973 621.10683045 358.18457031 627.46630859 C361.51396799 631.22558517 365.16397876 634.6756436 368.75 638.1875 C383.60073821 652.91101108 383.60073821 652.91101108 386.875 658.375 C386.545 659.365 386.215 660.355 385.875 661.375 C369.98269831 650.76514654 354.87973098 639.15544818 339.89648438 627.30761719 C333.73109492 622.44574647 327.43556578 617.76042171 321.140625 613.06835938 C318.63070321 611.19240921 316.12743757 609.30779634 313.625 607.421875 C312.73248535 606.74995117 311.8399707 606.07802734 310.92041016 605.38574219 C309.1796612 604.0750082 307.43971255 602.76321047 305.70068359 601.45019531 C301.5014332 598.29252121 297.28611316 595.23008942 292.875 592.375 C297.61008494 600.46235746 302.36034763 608.53837561 307.2109375 616.55712891 C313.29056931 626.61546156 319.12943665 636.79438629 324.875 647.046875 C326.70106906 650.30375008 328.54698049 653.54574019 330.4375 656.765625 C330.81293945 657.40773926 331.18837891 658.04985352 331.57519531 658.71142578 C332.53982705 660.35488907 333.51175224 661.99406574 334.484375 663.6328125 C335.82330209 666.27305638 336.46893036 668.45771021 336.875 671.375 C333.875 671.375 333.875 671.375 332.3671875 670.23046875 C328.07596935 665.8045022 324.1910985 661.13446939 320.328125 656.33203125 C317.7700718 653.24851808 315.10475479 650.30529079 312.375 647.375 C308.94263941 643.68784309 305.64940045 639.9338665 302.5 636 C297.89326989 630.27472931 292.90687133 624.95319937 287.8828125 619.59765625 C285.0302359 616.55438059 282.2657379 613.44555866 279.5390625 610.2890625 C276.04208561 606.26671819 272.44703589 602.33061021 268.875 598.375 C267.33277686 596.66716901 265.79110287 594.95884196 264.25 593.25 C263.49847656 592.41726563 262.74695313 591.58453125 261.97265625 590.7265625 C260.17955595 588.71642026 258.43057947 586.67825151 256.6875 584.625 C252.73318248 580.06873719 248.42087795 575.86762576 244.11254883 571.64941406 C241.21766993 568.79724449 238.44218421 565.91234822 235.80859375 562.81640625 C230.77840934 556.99205605 225.27136131 551.62253488 219.82348633 546.19311523 C217.94171726 544.31670525 216.06535262 542.43501031 214.18945312 540.55273438 C208.25458424 534.61422697 202.30732198 528.7797002 195.875 523.375 C194.74463346 522.39099791 193.61570263 521.40534389 192.48828125 520.41796875 C175.19862572 505.41497622 156.91581119 492.26332443 136.73828125 481.39111328 C134.99828264 480.44223039 133.27940553 479.45489894 131.5625 478.46484375 C119.76205138 471.81343347 107.1406641 466.98541197 94.61425781 461.89648438 C47.96528118 442.9331918 47.96528118 442.9331918 30.875 430.375 C29.93269531 429.715 28.99039062 429.055 28.01953125 428.375 C-4.14302105 405.26214867 -23.22814865 372.84060423 -31.125 334.375 C-31.3209375 333.50230469 -31.516875 332.62960937 -31.71875 331.73046875 C-34.34347989 316.51208296 -33.48233658 300.47725501 -32.125 285.1875 C-30.45510533 266.36217214 -29.48248033 246.62154048 -41.375 230.5625 C-42.59333499 229.1389444 -43.84382866 227.74227857 -45.125 226.375 C-45.74761719 225.69953125 -46.37023437 225.0240625 -47.01171875 224.328125 C-60.89163325 210.68615189 -83.42420823 204.65806881 -101.125 197.375 C-98.30730834 194.55730834 -95.1615092 194.2627139 -91.375 193.5 C-90.53751221 193.3249292 -89.70002441 193.1498584 -88.8371582 192.96948242 C-82.44075913 191.74201316 -76.07317565 191.062632 -69.58984375 190.54296875 C-67.88443945 190.39763143 -66.17903581 190.25228631 -64.47363281 190.10693359 C-61.06421859 189.81912381 -57.65657579 189.58861062 -54.24121094 189.38525391 C-45.90562579 188.96417283 -45.90562579 188.96417283 -38.59423828 185.39990234 C-36.84304509 183.13792494 -35.47292088 180.8928975 -34.125 178.375 C-21.26213036 163.28256629 -2.31099202 153.83657476 17.47875977 152.15356445 C43.25912911 151.02808803 65.550545 158.36464339 84.73828125 175.828125 C102.85309216 192.91915399 112.929918 214.80739248 123.4375 237.0625 C130.7632561 252.55632373 139.08635613 267.2782997 148.17480469 281.80126953 C153.00317509 289.52752593 157.51970068 297.37477433 161.875 305.375 C162.27745941 306.11127625 162.67991882 306.84755249 163.09457397 307.60614014 C170.08191511 320.45331152 176.14431192 333.5205386 181.76541138 347.01644897 C193.34087653 374.75774855 205.81832375 401.88006513 220.5859375 428.08203125 C221.79027669 430.22429521 222.97653136 432.37535573 224.15625 434.53125 C230.31740919 445.72996533 237.08180301 456.55135172 243.875 467.375 C242.885 467.87 242.885 467.87 241.875 468.375 C239.24658203 467.39379883 239.24658203 467.39379883 235.8828125 465.83203125 C235.27407791 465.55268234 234.66534332 465.27333344 234.03816223 464.98551941 C232.71686252 464.37849371 231.39714409 463.76801712 230.0788269 463.15454102 C226.54314855 461.50979321 222.9959283 459.89032072 219.44921875 458.26953125 C218.72587845 457.93833282 218.00253815 457.6071344 217.25727844 457.26589966 C210.49326213 454.17870966 203.66288566 451.26562231 196.8125 448.375 C174.26299494 438.79049724 152.17043756 428.52631237 130.875 416.375 C130.1516748 415.96894531 129.42834961 415.56289063 128.68310547 415.14453125 C106.19163546 402.511114 83.91742752 387.95879616 64.9921875 370.33984375 C63.02254508 368.51192837 60.99722352 366.78720825 58.9375 365.0625 C40.88573864 349.22634718 22.40770389 324.58123674 20.69799805 299.81054688 C20.2541354 280.1320468 21.65230397 265.18049898 35.625 250.0625 C46.71579025 239.71250681 62.04218225 236.08811624 76.875 235.375 C76.36710937 234.95089844 75.85921875 234.52679688 75.3359375 234.08984375 C65.37689268 225.60414077 65.37689268 225.60414077 62.875 221.375 C63.205 220.385 63.535 219.395 63.875 218.375 C64.71804688 218.5915625 65.56109375 218.808125 66.4296875 219.03125 C67.52539062 219.3096875 68.62109375 219.588125 69.75 219.875 C70.84054687 220.1534375 71.93109375 220.431875 73.0546875 220.71875 C75.71705069 221.45054418 75.71705069 221.45054418 77.875 221.375 C73.50504929 216.68000449 69.1217511 211.99789873 64.72070312 207.33203125 C63.24336801 205.76558704 61.76953644 204.19583887 60.296875 202.625 C47.45014797 189.30246827 31.59657391 178.63919521 12.75 178 C-0.48911411 178.2237226 -12.49910412 182.14747181 -22.21875 191.359375 C-26.0054077 195.49902622 -28.25667728 199.35543524 -31.125 204.375 C-39.705 204.375 -48.285 204.375 -57.125 204.375 C-54.670625 205.550625 -52.21625 206.72625 -49.6875 207.9375 C-43.24322919 211.11935059 -37.41964773 214.44435931 -32.125 219.375 C-31.526875 219.92027344 -30.92875 220.46554688 -30.3125 221.02734375 C-18.21916163 233.36362865 -13.10302093 251.84988724 -13.03271484 268.66308594 C-13.21830211 274.1167984 -13.91934135 279.52216304 -14.5625 284.9375 C-19.04627022 322.79536489 -14.20843938 358.86069156 9.61523438 389.78808594 C12.83446073 393.84331294 16.29920468 397.63487585 19.875 401.375 C20.7721875 402.36693359 20.7721875 402.36693359 21.6875 403.37890625 C34.61327359 417.16825523 52.19300156 427.09879577 69.875 433.375 C69.1015625 432.80652344 68.328125 432.23804688 67.53125 431.65234375 C58.42176709 424.89915036 50.1603107 418.12663383 42.875 409.375 C42.1634375 408.55128906 41.451875 407.72757812 40.71875 406.87890625 C31.47363912 395.97157509 25.11147927 384.96024842 20.875 371.375 C21.535 370.715 22.195 370.055 22.875 369.375 C23.58462891 370.39207031 23.58462891 370.39207031 24.30859375 371.4296875 C29.0982402 378.17067139 34.199092 384.3657917 39.875 390.375 C40.88626953 391.48294922 40.88626953 391.48294922 41.91796875 392.61328125 C65.24720676 417.25560958 98.42896369 431.09782619 130.71734619 439.08999634 C147.13484389 443.16712955 163.23719077 447.69984245 179.17041016 453.40673828 C181.72551878 454.3214847 184.28875653 455.2082994 186.85546875 456.08984375 C193.46467542 458.42145282 198.75232753 460.50807366 203.875 465.375 C203.875 466.035 203.875 466.695 203.875 467.375 C204.535 467.375 205.195 467.375 205.875 467.375 C207.07421875 468.59765625 207.07421875 468.59765625 208.5625 470.4375 C212.27591558 474.82323925 216.2909382 478.83975367 220.375 482.875 C224.80590449 487.2619758 229.11812278 491.65292906 233.140625 496.421875 C235.89358155 499.5220513 238.87456035 502.3947751 241.82470703 505.30517578 C245.09586374 508.54928883 248.14493632 511.91152822 251.1328125 515.4140625 C253.1293789 517.66131885 255.23512946 519.76394927 257.375 521.875 C261.42405198 525.87601238 265.1772851 530.05112742 268.875 534.375 C270.18585828 535.87643492 271.49832276 537.37646924 272.8125 538.875 C273.83333333 540.04166667 274.85416667 541.20833333 275.875 542.375 C278.72771546 539.6942133 280.81679857 537.10819711 282.7734375 533.72265625 C283.54445801 532.40031982 283.54445801 532.40031982 284.33105469 531.05126953 C284.84055664 530.16810059 285.35005859 529.28493164 285.875 528.375 C286.80414945 526.81087817 287.73382346 525.24706781 288.6640625 523.68359375 C300.43289085 503.59112513 310.23387614 482.89465251 317.97460938 460.92822266 C318.74227258 458.75137292 319.53020536 456.58383181 320.328125 454.41796875 C327.29897372 434.76282251 331.16481101 414.00292595 333.875 393.375 C333.99359375 392.47765137 334.1121875 391.58030273 334.234375 390.65576172 C344.87869843 305.39029593 319.32925616 216.13328189 266.875 148.375 C263.76315322 144.47546372 260.52193996 140.69647432 257.234375 136.94482422 C255.85127958 135.34760734 254.50101908 133.72722821 253.15625 132.09765625 C247.30039499 125.04519212 241.10418393 118.42332176 234.625 111.9375 C233.88048584 111.19218018 233.13597168 110.44686035 232.36889648 109.67895508 C227.69383099 105.05064543 222.87432018 100.64957469 217.875 96.375 C216.97136719 95.58996094 216.06773437 94.80492188 215.13671875 93.99609375 C200.6621979 81.71801005 185.30857577 70.86289319 168.875 61.375 C168.10639648 60.92560059 167.33779297 60.47620117 166.54589844 60.01318359 C127.95639462 37.56501784 85.12303965 23.72735021 40.875 18.375 C39.96685547 18.25930664 39.05871094 18.14361328 38.12304688 18.02441406 C-47.60524713 7.45732003 -136.47871844 33.15015865 -204.71142578 85.58496094 C-207.54900759 87.80846918 -210.33892749 90.0875404 -213.125 92.375 C-213.65270996 92.79974609 -214.18041992 93.22449219 -214.72412109 93.66210938 C-223.1652996 100.47275202 -230.89807905 107.96487168 -238.5625 115.625 C-239.03526367 116.09676666 -239.50802734 116.56853333 -239.99511719 117.05459595 C-245.59120006 122.65201748 -251.00669206 128.33756779 -256.125 134.375 C-256.86617065 135.23206543 -256.86617065 135.23206543 -257.62231445 136.10644531 C-272.11519399 152.95493013 -284.18536829 171.78736091 -294.92529297 191.21044922 C-296.07038246 193.27645725 -297.2388331 195.32769691 -298.41015625 197.37890625 C-319.05299221 234.19294433 -330.14788241 276.70767909 -335.125 318.375 C-335.2295752 319.24801758 -335.33415039 320.12103516 -335.44189453 321.02050781 C-340.05785833 366.78378396 -334.63122139 413.14133335 -320.90380859 456.88623047 C-320.23471346 459.02439843 -319.59069843 461.16757043 -318.95703125 463.31640625 C-314.48184123 477.77595524 -308.06615024 491.93525609 -301.125 505.375 C-301.29 504.3025 -301.455 503.23 -301.625 502.125 C-302.85360287 491.99347776 -301.9328249 482.38260211 -300.125 472.375 C-299.465 472.375 -298.805 472.375 -298.125 472.375 C-297.89425781 473.46296875 -297.66351563 474.5509375 -297.42578125 475.671875 C-292.51168811 498.14069983 -282.5921454 516.62442106 -262.90234375 529.609375 C-261.52755859 530.48335937 -261.52755859 530.48335937 -260.125 531.375 C-258.58005859 532.40367187 -258.58005859 532.40367187 -257.00390625 533.453125 C-225.17600758 554.06239596 -185.13278899 562.2990227 -148.125 567.375 C-147.30016113 567.48827637 -146.47532227 567.60155273 -145.62548828 567.71826172 C-131.19040381 569.62466866 -116.66734371 570.01543656 -102.125 570.375 C-101.33416016 570.39836426 -100.54332031 570.42172852 -99.72851562 570.44580078 C-48.22458686 571.87914211 2.38866801 561.12381047 40.875 525.375 C41.535 524.385 42.195 523.395 42.875 522.375 C41.97265625 522.83648438 41.0703125 523.29796875 40.140625 523.7734375 C-36.82837816 562.06855666 -145.43275349 563.05673437 -227.0625 536.5 C-250.15879228 528.41803951 -272.55671162 514.81508098 -283.9375 492.4375 C-292.37710499 474.86279538 -292.15125387 456.71231377 -286.125 438.375 C-285.78597656 437.33085937 -285.44695312 436.28671875 -285.09765625 435.2109375 C-281.9003294 426.58611987 -276.67980184 419.60347992 -271.125 412.375 C-270.62226563 411.68535156 -270.11953125 410.99570312 -269.6015625 410.28515625 C-261.60726862 399.98947473 -249.24097186 392.7166872 -237.125 388.375 C-236.465 388.705 -235.805 389.035 -235.125 389.375 C-236.06859375 390.19291016 -236.06859375 390.19291016 -237.03125 391.02734375 C-253.95973564 405.94174752 -264.58911022 422.38148738 -266.34765625 445.2734375 C-267.0485578 468.00702702 -257.00229014 488.70918317 -242.125 505.375 C-221.41837774 526.73209207 -193.74484949 533.60508336 -165.125 537.375 C-164.135 537.375 -163.145 537.375 -162.125 537.375 C-162.94097656 537.08109375 -163.75695312 536.7871875 -164.59765625 536.484375 C-197.59166778 523.99045116 -227.93006403 505.21289394 -243.390625 472.47265625 C-249.56544087 458.55310051 -249.6011033 443.7614056 -245.125 429.375 C-241.30262859 419.68464558 -236.17651592 411.07016342 -229.125 403.375 C-228.28001953 402.42753906 -228.28001953 402.42753906 -227.41796875 401.4609375 C-219.17130356 392.69282041 -208.84755223 387.45816958 -198.125 382.375 C-198.125 385.93229657 -198.90121165 386.79104151 -200.9375 389.625 C-207.96565322 399.83571316 -209.16595728 410.15195433 -208.125 422.375 C-205.68331014 435.34550539 -197.47598121 446.18313715 -189.10546875 456.03515625 C-187.36010384 458.09723432 -185.72028924 460.19594561 -184.125 462.375 C-188.87067805 461.00881996 -192.78008108 458.95123169 -196.875 456.25 C-197.48553223 455.85111572 -198.09606445 455.45223145 -198.72509766 455.04125977 C-209.76024384 447.73130791 -219.7406439 439.45153415 -227.125 428.375 C-224.80513391 439.05214765 -221.97214772 448.64108929 -213.90625 456.55078125 C-212.125 458.375 -212.125 458.375 -212.125 460.375 C-211.56425781 460.63023437 -211.00351563 460.88546875 -210.42578125 461.1484375 C-207.82241633 462.53630946 -205.64892946 464.19832936 -203.3125 466 C-184.92786583 479.37939345 -162.64010919 487.18777943 -140.71459961 492.57470703 C-139.85874268 492.78724121 -139.00288574 492.99977539 -138.12109375 493.21875 C-137.37013428 493.39599609 -136.6191748 493.57324219 -135.84545898 493.75585938 C-134.125 494.375 -134.125 494.375 -133.125 496.375 C-160.1973313 494.72899609 -189.58900271 490.9119395 -213.125 476.375 C-196.82706633 498.7846588 -166.97542361 508.529187 -140.87304688 512.94140625 C-122.86987621 515.78199181 -104.84960637 517.51088257 -86.6171875 517.578125 C-85.37164093 517.58382507 -84.12609436 517.58952515 -82.84280396 517.59539795 C-80.21926706 517.60477818 -77.59571876 517.61135386 -74.97216797 517.61523438 C-71.05804507 517.6248573 -67.14446718 517.6559156 -63.23046875 517.6875 C-23.59745915 517.854411 22.53573176 514.12562276 54.875 488.375 C55.72707031 487.69824219 56.57914062 487.02148438 57.45703125 486.32421875 C63.66346048 481.08550862 67.89167314 475.43155586 71.875 468.375 C76.18180566 469.07378635 78.05725394 469.95345121 80.875 473.375 C83.95361062 482.61083187 80.9919627 490.93954495 76.875 499.375 C72.45999156 507.45554875 67.18988432 514.57141781 60.86328125 521.26953125 C59.24438544 522.98384331 57.76580639 524.71062798 56.3125 526.5625 C53.75926192 529.50854394 51.0512476 531.95379619 48.0859375 534.47265625 C45.76958979 536.46569748 43.54792248 538.5418239 41.3125 540.625 C12.05251261 566.90562697 -25.53659093 584.87964076 -62.125 598.375 C-62.96691895 598.68679199 -63.80883789 598.99858398 -64.67626953 599.31982422 C-111.44411999 616.38641189 -160.64104657 621.24066845 -210.125 618.375 C-165.53314131 641.35710947 -116.94709085 634.13287441 -70.421875 619.44143677 C-22.73569185 604.09479512 24.21707332 581.08177897 60.875 546.375 C61.75671875 545.54613281 62.6384375 544.71726562 63.546875 543.86328125 C83.41934457 524.63638626 98.69521367 501.35711967 101.875 473.375 C117.61461348 487.97509395 125.79413264 513.0669003 127.09765625 533.94042969 C127.21444927 537.77546932 127.25545338 541.6006895 127.25 545.4375 C127.24912384 546.11786316 127.24824768 546.79822632 127.24734497 547.49920654 C127.19917645 558.88264473 126.15019473 569.44211031 122.875 580.375 C122.63362305 581.21675781 122.39224609 582.05851563 122.14355469 582.92578125 C114.65291766 608.66719049 100.91369825 629.75206478 82.875 649.375 C82.09382813 650.22835937 81.31265625 651.08171875 80.5078125 651.9609375 C63.31496341 669.90951622 40.20328156 682.43902384 16.875 690.375 C87.94245856 685.61920471 156.84457219 659.95575839 211.875 614.375 C212.76445313 613.65828125 213.65390625 612.9415625 214.5703125 612.203125 C221.76033754 606.39502678 228.62062979 600.27809193 235.4296875 594.03125 C236.23664062 593.2990625 237.04359375 592.566875 237.875 591.8125 C238.596875 591.15121094 239.31875 590.48992188 240.0625 589.80859375 C241.875 588.375 241.875 588.375 243.875 588.375 C245.31081474 589.98957079 246.67644783 591.66719075 248 593.375 C248.72445312 594.303125 249.44890625 595.23125 250.1953125 596.1875 C250.74960937 596.909375 251.30390625 597.63125 251.875 598.375 C248.36589964 602.55939115 244.78760704 606.5578224 240.875 610.375 C240.35164062 610.90867187 239.82828125 611.44234375 239.2890625 611.9921875 C215.45237793 636.26030528 185.87773776 654.78117765 155.875 670.375 C155.10285156 670.7781543 154.33070313 671.18130859 153.53515625 671.59667969 C75.28305886 711.92607786 -21.46920271 718.31350264 -105.125 692.375 C-126.14718411 685.51453285 -146.39467348 677.26441998 -165.79296875 666.6484375 C-168.08389336 665.39744684 -170.3845861 664.16624924 -172.6875 662.9375 C-194.24194141 651.33198023 -215.32019285 637.23021744 -233.125 620.375 C-234.45243142 619.20162252 -235.78562963 618.03473096 -237.125 616.875 C-237.7746875 616.30523438 -238.424375 615.73546875 -239.09375 615.1484375 C-240.48190997 613.93646706 -241.87816279 612.73372009 -243.28125 611.5390625 C-255.79192613 600.65477426 -266.92144791 588.24661131 -276.88232422 575.01171875 C-278.09972846 573.40828495 -279.34844627 571.82878038 -280.59765625 570.25 C-319.73353982 520.632398 -343.73118762 458.92838789 -351.125 396.375 C-351.24214355 395.41835449 -351.35928711 394.46170898 -351.47998047 393.47607422 C-357.20403344 344.83438185 -351.85138123 294.96207179 -337.125 248.375 C-336.87637207 247.5715918 -336.62774414 246.76818359 -336.37158203 245.94042969 C-330.85437049 228.16569327 -323.83675608 210.88147681 -315.18164062 194.40283203 C-314.05259654 192.23604827 -312.95519504 190.05485357 -311.859375 187.87109375 C-299.68211239 163.85053358 -284.08676249 141.4268351 -266.125 121.375 C-265.29871094 120.44945312 -264.47242188 119.52390625 -263.62109375 118.5703125 C-262.13583712 116.91667652 -260.64656762 115.26663142 -259.15234375 113.62109375 C-257.1992666 111.45727996 -255.28306651 109.26600906 -253.375 107.0625 C-248.53701164 101.53022174 -243.2455654 96.62561299 -237.76171875 91.7421875 C-236.14208173 90.28811338 -234.53683531 88.81756824 -232.95703125 87.3203125 C-214.98166075 70.45846052 -193.50680035 56.53676785 -172.125 44.375 C-171.49899902 44.01873535 -170.87299805 43.6624707 -170.22802734 43.29541016 C-118.21227558 14.03901079 -59.44120059 -0.10769122 0 0 Z M51.640625 247.88671875 C42.7012782 252.69729944 36.61228608 259.94522349 33.13671875 269.37890625 C27.78552183 288.56312921 34.57939733 307.71516267 43.875 324.375 C49.20940302 333.1510206 55.76461185 340.98622797 62.875 348.375 C63.77863281 349.33019531 64.68226563 350.28539062 65.61328125 351.26953125 C72.8080369 358.75580272 80.55797083 365.17936099 88.875 371.375 C89.86016602 372.1187085 89.86016602 372.1187085 90.86523438 372.87744141 C109.14610135 386.64017388 128.66782343 398.65924749 148.875 409.375 C149.88965332 409.91511719 150.90430664 410.45523438 151.94970703 411.01171875 C169.27254738 420.20187735 186.68396884 428.95521287 205 436 C205.66990967 436.26039063 206.33981934 436.52078125 207.0300293 436.7890625 C208.62319674 437.3802286 210.2474717 437.88631657 211.875 438.375 C212.535 438.045 213.195 437.715 213.875 437.375 C212.45935393 435.47839726 211.04251545 433.58270483 209.625 431.6875 C208.83609375 430.63175781 208.0471875 429.57601562 207.234375 428.48828125 C206.45578125 427.46089844 205.6771875 426.43351563 204.875 425.375 C204.31039062 424.51390625 203.74578125 423.6528125 203.1640625 422.765625 C199.81378443 419.26669978 195.89125127 417.74586868 191.5 415.8125 C180.89433101 410.95483604 170.71222413 405.50612989 160.52441406 399.83349609 C158.02820521 398.4593391 155.51610478 397.12319913 152.9921875 395.80078125 C127.41759512 382.2996848 103.74411367 365.23487596 81.875 346.375 C80.82372038 345.5120408 79.77163886 344.65005755 78.71875 343.7890625 C74.99492143 340.62790034 71.99548962 337.11694307 68.875 333.375 C68.2459375 332.64539063 67.616875 331.91578125 66.96875 331.1640625 C53.75438812 315.38024136 44.30137223 296.7688743 44.99609375 275.703125 C46.27299054 263.6450069 50.79402124 255.41527789 60.1171875 247.73828125 C60.69726562 247.28839844 61.27734375 246.83851563 61.875 246.375 C57.69880189 244.98293396 55.59325235 246.20511852 51.640625 247.88671875 Z M124.875 351.375 C138.6494018 374.13270732 164.01446918 386.71045087 187.875 396.375 C188.535 396.375 189.195 396.375 189.875 396.375 C189.545 395.385 189.215 394.395 188.875 393.375 C188.215 393.375 187.555 393.375 186.875 393.375 C186.545 392.385 186.215 391.395 185.875 390.375 C173.35525781 377.29555169 154.88914652 368.51780742 139.31591797 359.60766602 C136.09077742 357.74996833 133.0369049 355.80588707 130.03515625 353.6015625 C127.24680425 351.18301037 127.24680425 351.18301037 124.875 351.375 Z M111.875 505.375 C111.39933594 507.01082031 111.39933594 507.01082031 110.9140625 508.6796875 C105.5203462 526.42431881 96.93780371 541.33795364 84.875 555.375 C84.1015625 556.27734375 83.328125 557.1796875 82.53125 558.109375 C74.02945767 567.7487311 64.98124812 576.43888256 54.875 584.375 C53.67553836 585.34996167 52.47633434 586.32524034 51.27734375 587.30078125 C17.58231418 614.30456956 -22.66658668 629.87417941 -62.90893555 644.20507812 C-65.67197145 645.21019982 -68.40331759 646.26361159 -71.125 647.375 C-71.125 647.705 -71.125 648.035 -71.125 648.375 C-54.00119689 648.9168925 -37.88184288 648.0306504 -21.125 644.375 C-20.33222656 644.20371582 -19.53945313 644.03243164 -18.72265625 643.85595703 C7.21265066 638.00702841 32.85412929 625.56965039 53.875 609.375 C54.74125 608.72015625 55.6075 608.0653125 56.5 607.390625 C88.02946165 582.93508103 107.7135607 551.19781219 112.875 511.375 C112.91754356 509.37545254 112.93407219 507.37412743 112.875 505.375 C112.545 505.375 112.215 505.375 111.875 505.375 Z M-300.125 507.375 C-299.125 509.375 -299.125 509.375 -299.125 509.375 Z M-160.125 519.375 C-156.36256093 522.65011363 -152.48985395 524.85176305 -147.9375 526.8125 C-147.24261475 527.1125293 -146.54772949 527.41255859 -145.83178711 527.72167969 C-105.39892512 544.60662305 -56.52836259 543.62713911 -16.125 527.375 C-16.125 527.045 -16.125 526.715 -16.125 526.375 C-22.26351765 526.25795199 -28.32858041 526.42567253 -34.453125 526.8671875 C-43.09643179 527.44256523 -51.71456779 527.57496687 -60.375 527.5625 C-61.16303009 527.56189575 -61.95106018 527.5612915 -62.76296997 527.56066895 C-93.19903396 527.49834902 -124.19804562 526.30831199 -154.01708984 519.7421875 C-156.42516783 519.26059278 -156.42516783 519.26059278 -160.125 519.375 Z M-274.125 549.375 C-264.70855611 569.5144757 -243.33230614 583.04079853 -223.125 590.375 C-218.49857768 591.90398819 -213.85170272 593.19607881 -209.125 594.375 C-208.08085937 594.65085937 -207.03671875 594.92671875 -205.9609375 595.2109375 C-190.42316214 599.10502016 -174.75537815 599.78593722 -158.8125 599.75 C-157.43978439 599.74918427 -157.43978439 599.74918427 -156.03933716 599.74835205 C-126.88259601 599.66915019 -97.30367826 595.36315973 -70.125 584.375 C-70.125 584.045 -70.125 583.715 -70.125 583.375 C-81.63504243 581.89807572 -93.09886664 580.84437072 -104.6875 580.25 C-105.489599 580.20730988 -106.291698 580.16461975 -107.11810303 580.12063599 C-120.00120177 579.44847568 -132.85107748 579.25159843 -145.75 579.3125 C-147.4421386 579.31983976 -149.13427728 579.32716408 -150.82641602 579.33447266 C-151.65091751 579.33803772 -152.47541901 579.34160278 -153.3249054 579.34527588 C-197.61192309 579.52846706 -236.0853198 573.54338742 -274.125 549.375 Z M105.875 581.375 C105.49730469 582.00664063 105.11960937 582.63828125 104.73046875 583.2890625 C99.69088704 591.47985807 93.96385944 598.94449327 87.875 606.375 C87.39901367 606.95685059 86.92302734 607.53870117 86.43261719 608.13818359 C75.74056783 621.11724419 64.18407844 633.05715114 50.875 643.375 C49.91722656 644.14972656 48.95945312 644.92445313 47.97265625 645.72265625 C27.40219705 662.09082744 4.39404474 674.1254552 -20.125 683.375 C-20.125 683.705 -20.125 684.035 -20.125 684.375 C10.86739635 686.03530695 41.58845653 667.32190634 63.875 647.375 C65.14150391 646.29025391 65.14150391 646.29025391 66.43359375 645.18359375 C71.38316439 640.9184494 75.75108404 636.43930684 79.875 631.375 C80.63554687 630.46363281 81.39609375 629.55226563 82.1796875 628.61328125 C91.31146185 617.27679502 98.1107934 604.69211968 104.0625 591.4375 C104.36631592 590.76936279 104.67013184 590.10122559 104.9831543 589.4128418 C106.72476535 585.5029517 106.72476535 585.5029517 105.875 581.375 Z " fill="#F8F8F8" transform="translate(355.125,17.625)"/>
<path d="M0 0 C1.71159302 0.01087646 1.71159302 0.01087646 3.45776367 0.02197266 C13.88391334 0.19212908 23.63404719 1.26031581 33.3125 5.375 C31.93459707 8.13080586 29.94100007 8.86361246 27.3125 10.375 C26.9825 10.705 26.6525 11.035 26.3125 11.375 C24.76714593 11.30987013 23.22465214 11.17182667 21.6875 11 C20.77226562 10.90074219 19.85703125 10.80148437 18.9140625 10.69921875 C16.9564177 10.455248 15.00638825 10.1489422 13.0625 9.8125 C1.82397694 8.50133898 -12.31482097 8.07053005 -22.3125 14.25 C-25.35176623 16.96934347 -27.85621801 19.71243602 -29.6875 23.375 C-29.75783769 25.24879605 -29.7718022 27.12501102 -29.75 29 C-29.73646484 30.50433594 -29.73646484 30.50433594 -29.72265625 32.0390625 C-29.71105469 32.80992187 -29.69945312 33.58078125 -29.6875 34.375 C-29.0275 33.653125 -28.3675 32.93125 -27.6875 32.1875 C-17.23173142 21.84888288 -3.76838609 20.32669183 10.32421875 20.14453125 C13.22765063 20.36845606 14.86113767 20.86601053 17.3125 22.375 C16.44625 23.2825 15.58 24.19 14.6875 25.125 C6.92577564 34.29961508 3.95156286 44.65692375 2.3125 56.375 C1.92964844 58.10363281 1.92964844 58.10363281 1.5390625 59.8671875 C0.99746086 63.64064157 0.9321052 65.80549425 2.3125 69.375 C6.94529292 74.09824504 13.37295365 76.69554026 19.3125 79.375 C20.11381348 79.74496094 20.91512695 80.11492187 21.74072266 80.49609375 C27.19199997 82.98532215 32.71373613 85.24036256 38.3125 87.375 C39.54226562 87.84679687 40.77203125 88.31859375 42.0390625 88.8046875 C80.37620729 102.49045316 124.5876722 104.13033428 163.3125 91.375 C163.6425 91.045 163.9725 90.715 164.3125 90.375 C153.63402042 85.74094283 142.60379611 86.23205561 131.125 86.3125 C129.88685547 86.31701172 128.64871094 86.32152344 127.37304688 86.32617188 C124.35281215 86.33783301 121.33268323 86.35419764 118.3125 86.375 C118.47363281 85.42367187 118.63476562 84.47234375 118.80078125 83.4921875 C119.46306354 78.82925133 119.4964533 74.20292856 119.5 69.5 C119.51224609 68.65308594 119.52449219 67.80617188 119.53710938 66.93359375 C119.55045766 61.12264015 118.75168401 56.00658962 117.3125 50.375 C121.70161912 49.29712202 126.00534418 49.18352551 130.5 49.1875 C131.25015381 49.18685547 132.00030762 49.18621094 132.77319336 49.18554688 C138.46045534 49.239472 143.81201109 49.86135195 149.3125 51.375 C141.97688689 47.50087933 134.65150452 43.95944949 126.875 41.0625 C125.90143555 40.69970947 125.90143555 40.69970947 124.90820312 40.32958984 C121.79840891 39.19810318 118.7871565 38.25649736 115.5546875 37.52734375 C111.62203328 36.12959315 110.78670372 34.88689976 108.875 31.25 C108.13443359 29.88488281 108.13443359 29.88488281 107.37890625 28.4921875 C107.02699219 27.79351562 106.67507813 27.09484375 106.3125 26.375 C133.85407087 27.08784066 162.40020571 47.34596213 181.875 65.4375 C187.45000841 71.33621858 190.59343243 77.30295416 190.625 85.5 C190.54615667 87.12642535 190.45129924 88.75259115 190.3125 90.375 C191.42625 89.7975 192.54 89.22 193.6875 88.625 C194.31398438 88.30015625 194.94046875 87.9753125 195.5859375 87.640625 C197.72791685 86.07048629 198.41044099 84.86468286 199.3125 82.375 C199.55229762 80.01277768 199.55229762 80.01277768 199.4375 77.625 C199.41945313 76.82578125 199.40140625 76.0265625 199.3828125 75.203125 C199.35960937 74.59984375 199.33640625 73.9965625 199.3125 73.375 C201.27119403 74.18663009 203.22944436 74.99933101 205.1875 75.8125 C206.27804687 76.26496094 207.36859375 76.71742188 208.4921875 77.18359375 C210.11808624 77.87043463 211.73381774 78.58565887 213.3125 79.375 C211.64622516 87.74340255 204.99056841 92.88634762 198.27734375 97.5 C159.44127011 122.06036277 106.0532566 120.99186013 62.77026367 111.37670898 C25.4330496 102.62708709 -12.11745012 85.29545894 -33.61865234 52.15039062 C-39.10300519 43.04070267 -42.40965968 32.60610967 -40.19140625 22.00390625 C-37.63861237 13.45132562 -33.10802349 9.30382357 -25.67578125 4.76953125 C-17.16155608 0.79622617 -9.33904386 -0.1166437 0 0 Z M139.3125 63.375 C141.94500971 65.13000647 144.11010548 66.16769749 147.03125 67.29296875 C157.07865763 71.23601999 166.55578762 74.96288404 175.3125 81.375 C176.3025 82.035 177.2925 82.695 178.3125 83.375 C176.84209552 76.83986899 172.86180867 71.78371247 167.35546875 68.046875 C158.18371366 63.19868888 149.50084627 63.11742945 139.3125 63.375 Z " fill="#F6F6F6" transform="translate(201.6875,399.625)"/>
<path d="M0 0 C1.5159375 0.81210938 1.5159375 0.81210938 3.0625 1.640625 C7.42839792 4.08457873 11.59203204 6.64864957 15.5703125 9.68359375 C27.20454482 18.49055743 39.60667254 23.97232627 52.98388672 29.68945312 C70.4386769 37.27382367 84.99428084 48.46910652 98.60400391 61.65087891 C99.86288945 62.86749337 101.13941755 64.06578798 102.41796875 65.26171875 C109.02374024 71.5868911 114.522897 78.70373036 120 86 C120.42958008 86.56879883 120.85916016 87.13759766 121.30175781 87.72363281 C128.30073346 97.05021237 134.29918137 106.83650928 140 117 C140.4125 117.72251953 140.825 118.44503906 141.25 119.18945312 C156.87358067 146.70160221 167.6114793 178.49276425 171 210 C171.1381311 211.26807495 171.1381311 211.26807495 171.27905273 212.56176758 C172.72362894 226.95762843 172.52467918 241.59598864 171.25 256 C171.1883667 256.7933374 171.1267334 257.5866748 171.06323242 258.40405273 C170.48465629 264.02339083 168.75613631 268.07032529 166 273 C165.34 272.67 164.68 272.34 164 272 C163.98018066 270.86272461 163.96036133 269.72544922 163.93994141 268.55371094 C163.86237946 264.22947383 163.7739317 259.90550966 163.68261719 255.58154297 C163.64493548 253.72971077 163.60999207 251.8778203 163.578125 250.02587891 C163.40450491 240.04814911 163.05295017 230.13410738 162.07421875 220.19921875 C161.99656281 219.40437073 161.91890686 218.60952271 161.83889771 217.79058838 C160.08980363 201.4089455 155.97632871 183.71977242 145 171 C143.69899982 169.95828204 142.37366626 168.94383196 141 168 C137.95353221 169.36289349 135.88245987 170.93023645 133.5 173.25 C123.68839565 181.89781917 111.30994342 184.99481863 98.98608398 188.4309082 C97.31110679 188.91085557 95.65296953 189.44901016 94 190 C94.94679355 181.56047816 97.43206867 175.14383246 102 168 C102.38027344 167.401875 102.76054688 166.80375 103.15234375 166.1875 C107.85822186 159.75669148 116.29259656 155.37632204 124 154 C131.82315182 153.13675566 137.81592575 155.0235699 145 158 C145.99 158.33 146.98 158.66 148 159 C136.912118 130.18688678 136.912118 130.18688678 114 111 C113.01 110.67 112.02 110.34 111 110 C110.38125 110.680625 109.7625 111.36125 109.125 112.0625 C99.81725386 121.2142504 89.23303417 126.04900215 76.125 126.5 C65.62340075 126.23497541 55.28239466 124.01547264 45 122 C45 121.34 45 120.68 45 120 C45.66 120 46.32 120 47 120 C47.26683594 119.40960938 47.53367187 118.81921875 47.80859375 118.2109375 C53.81540124 107.06387836 68.67361562 99.81997252 80.25 96.1875 C93.80402547 92.86580925 105.39521245 95.86557278 118 101 C94.63755389 68.78814248 67.10853669 43.90438744 29.125 30.5625 C22.12340141 27.94904075 16.74846913 23.68888193 11 19 C-23.10175236 -8.35994719 -71.41381895 -18.03455899 -114.125 -18.25 C-115.09308594 -18.270625 -116.06117188 -18.29125 -117.05859375 -18.3125 C-140.46021723 -18.42907098 -163.95624164 -13.54875141 -186.94360352 -9.68041992 C-226.16279233 -3.10852822 -226.16279233 -3.10852822 -241 -13 C-239.25335577 -17.16574648 -237.32870169 -18.37221737 -233.30078125 -20.16796875 C-224.99688767 -23.1709048 -217.71792273 -21.6064934 -209.39135742 -19.47460938 C-197.20621979 -16.50631961 -185.36580473 -18.29254052 -173.1875 -20.375 C-170.49423903 -20.82490624 -167.80005684 -21.26905421 -165.10546875 -21.7109375 C-164.44271942 -21.82013519 -163.77997009 -21.92933289 -163.09713745 -22.0418396 C-108.29618201 -30.9360007 -49.47798887 -26.77308954 0 0 Z " fill="#F3F3F3" transform="translate(496,98)"/>
<path d="M0 0 C-2.73708012 17.72974286 -10.21370032 34.50353135 -22 48 C-22.78246094 48.98226562 -23.56492187 49.96453125 -24.37109375 50.9765625 C-32.05188257 60.1923418 -45.29668721 69.02651946 -56.69116211 72.91943359 C-60.9495364 74.47398166 -64.09497845 75.68725675 -66.72167969 79.49731445 C-68.13433735 82.62233948 -69.25699143 85.73711203 -70.3125 89 C-70.92158203 90.72875366 -70.92158203 90.72875366 -71.54296875 92.49243164 C-72.75029102 95.97958399 -73.8884233 99.481264 -75 103 C-75.32403809 104.02077637 -75.64807617 105.04155273 -75.98193359 106.09326172 C-78.5054371 114.18944538 -80.84290727 122.21969873 -82.0625 130.625 C-82.71978359 134.75091874 -82.71978359 134.75091874 -85.25 137 C-86.1575 137.33 -87.065 137.66 -88 138 C-88.99 138.598125 -89.98 139.19625 -91 139.8125 C-94 141 -94 141 -96.27734375 140.37890625 C-99.67855265 138.65634278 -102.59415915 136.49099694 -105.5625 134.125 C-106.1716626 133.6410376 -106.7808252 133.1570752 -107.40844727 132.65844727 C-127.553378 116.35786914 -141.81701773 95.32886394 -144.81469727 69.15185547 C-146.47998521 49.81345235 -145.53598676 24.99426505 -133 9 C-132.86013672 9.57218262 -132.72027344 10.14436523 -132.57617188 10.73388672 C-127.80673098 29.93817086 -121.01570673 46.02177732 -110.79882812 62.94238281 C-106.07768169 70.76954664 -101.85903763 78.71695397 -98 87 C-97.59394531 87.83660156 -97.18789062 88.67320312 -96.76953125 89.53515625 C-93.03950574 97.86697568 -91.72025526 107.08761373 -90 116 C-89.38125 114.13021484 -89.38125 114.13021484 -88.75 112.22265625 C-84.47198108 99.52405129 -79.83131907 86.92434177 -72.84375 75.4296875 C-70.97384143 71.95134062 -70.2869144 69.313103 -69.6875 65.4375 C-67.52451691 54.39923303 -62.33574698 44.53272201 -55 36 C-54.25105469 35.11957031 -53.50210938 34.23914063 -52.73046875 33.33203125 C-46.46427387 26.15475796 -46.46427387 26.15475796 -43 25 C-43 24.34 -43 23.68 -43 23 C-40.5200452 21.07114626 -38.04750533 19.30213862 -35.4375 17.5625 C-34.64988281 17.03624023 -33.86226563 16.50998047 -33.05078125 15.96777344 C-8.41751166 0 -8.41751166 0 0 0 Z " fill="#F8F8F8" transform="translate(192,260)"/>
<path d="M0 0 C0.33 0 0.66 0 1 0 C0.97679688 0.55945313 0.95359375 1.11890625 0.9296875 1.6953125 C0.6228597 15.32723353 3.84170808 27.96224332 7.5625 40.9375 C8.18422974 43.12433204 8.80324253 45.31184838 9.41722107 47.50086975 C9.96976065 49.46826362 10.53062864 51.43331302 11.09204102 53.39819336 C12.81524245 60.23400697 13.1927787 66.80898425 13.1875 73.8125 C13.18814453 74.69599121 13.18878906 75.57948242 13.18945312 76.48974609 C13.1402776 82.54839395 12.52951553 88.12775288 11 94 C11 94.66 11 95.32 11 96 C11.59425781 94.9584375 12.18851563 93.916875 12.80078125 92.84375 C22.98169009 75.15827099 33.89708365 59.47131141 48.76953125 45.375 C50.98821087 43.01255305 52.07260149 41.15080957 53.3125 38.1875 C59.90741645 24.53238157 73.48833783 18.45924346 87.09545898 13.59375 C100.34453125 9 100.34453125 9 103 9 C98.78503851 24.59535752 88.46921992 36.22179435 74.83203125 44.28125 C69.12385446 47.28915154 62.98794898 49.78153354 56.52734375 50.25390625 C52.04593946 51.20180018 50.907406 52.67128252 48.125 56.25 C47.70210693 56.78866699 47.27921387 57.32733398 46.84350586 57.88232422 C45.53555888 59.56979304 44.2633316 61.27893956 43 63 C42.25621094 64.00804687 41.51242188 65.01609375 40.74609375 66.0546875 C34.34336607 75.0574495 28.62591333 84.49873469 23 94 C22.59749023 94.6796582 22.19498047 95.35931641 21.78027344 96.05957031 C19.08210324 100.65167023 16.499085 105.29669737 14 110 C13.63696777 110.67981934 13.27393555 111.35963867 12.89990234 112.06005859 C6.6415703 123.97766752 2.30288977 136.40334837 -1.72631836 149.20947266 C-2.32391968 151.08965088 -2.32391968 151.08965088 -2.93359375 153.0078125 C-3.4603772 154.70381592 -3.4603772 154.70381592 -3.99780273 156.43408203 C-5 159 -5 159 -7 160 C-7.71593401 143.17555068 -5.15008635 128.43687113 1.14453125 112.8203125 C2.03192779 109.89474036 2.26008106 108.74496532 1 106 C-0.37981331 104.36981015 -0.37981331 104.36981015 -2.125 102.875 C-13.43871915 91.90832744 -20.79238136 75.99185965 -21.30078125 60.171875 C-21.31526242 58.03129542 -21.31893989 55.89061888 -21.3125 53.75 C-21.32861328 52.69425781 -21.34472656 51.63851562 -21.36132812 50.55078125 C-21.36781527 39.95078545 -19.24716072 30.33464022 -14.3125 20.9375 C-13.96944824 20.26702637 -13.62639648 19.59655273 -13.27294922 18.90576172 C-9.6846715 12.08003835 -5.47449506 5.47449506 0 0 Z " fill="#F5F5F5" transform="translate(108,186)"/>
<path d="M0 0 C0.66 0.33 1.32 0.66 2 1 C1.73445313 1.77601562 1.46890625 2.55203125 1.1953125 3.3515625 C0.66550781 4.97191406 0.66550781 4.97191406 0.125 6.625 C-0.39707031 8.19121094 -0.39707031 8.19121094 -0.9296875 9.7890625 C-4.37076917 22.1140754 -4.34738855 34.84891129 -4.38085938 47.53295898 C-4.44851499 62.8789449 -6.73770157 76.99786042 -13.75 90.8125 C-14.18103027 91.69123779 -14.61206055 92.56997559 -15.05615234 93.4753418 C-18.50763558 100.3687808 -22.40408274 106.79936303 -27 113 C-37.59513457 92.5600301 -40.66371496 67.11701661 -34.3203125 44.9296875 C-28.6036404 27.04203608 -15.93312924 10.07776256 0 0 Z " fill="#F9F9F9" transform="translate(169,121)"/>
<path d="M0 0 C12.69244259 9.31087941 21.15010579 23.09033963 24.4375 38.5 C25.95164207 48.46449685 25.85199949 58.4725643 23.125 68.1875 C6.2320615 67.22394647 6.2320615 67.22394647 -0.875 66.1875 C0.19901108 63.27232708 0.90310176 61.40939824 3.125 59.1875 C2.795 60.8375 2.465 62.4875 2.125 64.1875 C2.785 64.1875 3.445 64.1875 4.125 64.1875 C4.62 62.2075 4.62 62.2075 5.125 60.1875 C6.61 61.1775 6.61 61.1775 8.125 62.1875 C12.37373001 51.03458373 10.67608425 38.96265275 6.125 28.1875 C2.04392256 20.14939002 -4.58029458 12.54266873 -13.125 9.1875 C-21.64836889 6.91162663 -30.55437442 7.15290964 -38.59375 10.859375 C-48.38532445 16.55994917 -53.76298182 24.39428065 -57.09375 35.03125 C-58.25464664 39.72127241 -58.68528909 44.36884288 -58.875 49.1875 C-63.6740969 48.40008341 -66.75414943 46.69233074 -70.875 44.1875 C-70.46394579 31.25984507 -67.64305325 21.56529292 -59.875 11.1875 C-59.1325 10.15625 -58.39 9.125 -57.625 8.0625 C-42.46419611 -7.78743134 -18.85041837 -11.95783342 0 0 Z " fill="#F1F2F2" transform="translate(285.875,417.8125)"/>
<path d="M0 0 C2.29111479 1.70275028 4.35997347 3.48407449 6.421875 5.45703125 C7.37707031 6.3696875 7.37707031 6.3696875 8.3515625 7.30078125 C18.36351835 17.78540454 19.90492629 29.52586342 19.6953125 43.328125 C19.12326076 58.79900944 11.27229898 71.52205182 0.26953125 81.96484375 C-10.42122941 91.32109245 -10.42122941 91.32109245 -15.3671875 91.6328125 C-16.09679687 91.57480469 -16.82640625 91.51679688 -17.578125 91.45703125 C-18.328125 89.20703125 -18.328125 89.20703125 -18.578125 86.45703125 C-16.46611213 83.61040521 -13.66264644 81.78120769 -10.828125 79.70703125 C-0.22345819 71.80280933 7.63033492 61.63474253 10.421875 48.45703125 C12.09221149 36.6254811 11.79486067 26.95966863 5.1796875 16.78125 C0.04964916 9.9981993 -6.23108317 5.38327167 -14.578125 3.45703125 C-24.88632883 2.15291305 -32.99983312 3.45090108 -41.578125 9.45703125 C-47.71203098 14.7730831 -51.93707303 22.56145492 -52.81640625 30.6484375 C-53.05633607 38.31356392 -51.77717639 45.58486059 -46.77734375 51.63671875 C-42.16412851 55.95432991 -37.84468288 58.34295216 -31.38671875 58.515625 C-25.76009705 58.22048917 -21.54244373 56.5311649 -17.578125 52.45703125 C-14.83046824 48.0681567 -14.78726018 43.4794305 -15.578125 38.45703125 C-18.53806775 34.36534568 -22.00350678 32.47837418 -26.578125 30.45703125 C-25.918125 29.13703125 -25.258125 27.81703125 -24.578125 26.45703125 C-20.54198098 26.13413973 -18.06016825 26.22073554 -14.390625 28.01953125 C-10.05588342 31.77630729 -8.11186651 35.36018959 -6.703125 40.89453125 C-6.46002966 47.82274856 -8.21011842 52.99702302 -12.578125 58.45703125 C-18.31071043 64.05933065 -23.89031366 66.51699355 -31.828125 67.01953125 C-40.26086922 66.75015192 -47.80370901 62.77757114 -53.578125 56.70703125 C-59.15636301 49.59137642 -61.85049962 41.09259176 -61.4140625 32.0625 C-59.86406024 20.5688392 -56.31095332 11.37275283 -47.578125 3.45703125 C-33.62542178 -7.06116041 -15.29954787 -9.15654759 0 0 Z " fill="#ECECEC" transform="translate(624.578125,334.54296875)"/>
<path d="M0 0 C-4.45115297 10.09796139 -8.9123348 19.43293599 -16 28 C-16.71027344 28.87269531 -17.42054688 29.74539062 -18.15234375 30.64453125 C-31.70248587 46.52844125 -50.48275625 52.79907109 -70.34375 57.19140625 C-73.23561251 58.07172322 -75.47809245 59.35070901 -78 61 C-75.93673412 45.97593715 -64.43466554 32.02052189 -52.88134766 23.10644531 C-43.27789823 16.05744877 -10.77606564 -5.38803282 0 0 Z " fill="#F7F7F7" transform="translate(276,115)"/>
<path d="M0 0 C-0.28665527 0.70020264 -0.57331055 1.40040527 -0.86865234 2.12182617 C-2.02940616 5.07480992 -3.07443823 8.04879186 -4.1015625 11.05078125 C-10.33429549 29.05963423 -16.09338248 45.58324782 -29 60 C-30.57706768 61.82839525 -32.14475145 63.66457582 -33.71191406 65.50146484 C-35.23552385 67.28489705 -36.76769646 69.06065195 -38.30078125 70.8359375 C-40.59757776 73.50813309 -42.81822361 76.23261617 -45 79 C-45.66 78.67 -46.32 78.34 -47 78 C-47.85510011 56.57499156 -45.23488441 36.59667896 -30.25 20.125 C-23.4095761 12.9521223 -10.43890192 0 0 0 Z " fill="#F5F5F5" transform="translate(235,87)"/>
<path d="M0 0 C0.71027344 0.63808594 1.42054688 1.27617188 2.15234375 1.93359375 C2.15234375 2.59359375 2.15234375 3.25359375 2.15234375 3.93359375 C1.22615234 3.8253125 1.22615234 3.8253125 0.28125 3.71484375 C-2.42594794 3.41816452 -5.13476566 3.17229781 -7.84765625 2.93359375 C-8.646875 2.84207031 -9.44609375 2.75054687 -10.26953125 2.65625 C-13.49355015 2.42834522 -15.85309803 2.27788944 -18.61328125 4.09765625 C-19.75715569 5.13997175 -20.88419415 6.20098432 -21.99609375 7.27734375 C-29.97795387 14.4172355 -42.47029814 17.44124865 -52.97265625 16.99609375 C-62.23776831 15.77187474 -74.02454965 13.14899815 -81.84765625 7.93359375 C-58.96470354 -12.74907504 -26.11514921 -18.95049922 0 0 Z " fill="#F8F8F8" transform="translate(499.84765625,119.06640625)"/>
<path d="M0 0 C-3.83050551 12.68157648 -12.5543763 23.11509704 -24.03515625 29.625 C-30.11712324 32.44562237 -36.55448762 34.20802579 -43 36 C-44.09957031 36.31066406 -45.19914063 36.62132812 -46.33203125 36.94140625 C-50.20837856 38.01557478 -54.09564819 39.03286698 -58 40 C-54.91629397 31.70023803 -51.64986853 25.05876911 -45 19 C-44.40832031 18.4534375 -43.81664062 17.906875 -43.20703125 17.34375 C-36.60585457 11.69621423 -29.08771046 8.83808095 -21 6 C-19.81736572 5.58306885 -19.81736572 5.58306885 -18.61083984 5.15771484 C-16.16113605 4.301503 -13.7073595 3.45897241 -11.25 2.625 C-10.475354 2.36195068 -9.70070801 2.09890137 -8.90258789 1.82788086 C-5.8275681 0.81243143 -3.2601752 0 0 0 Z " fill="#F5F5F5" transform="translate(186,351)"/>
<path d="M0 0 C-5.43993871 11.10772826 -11.0491386 21.33052796 -20 30 C-20.57041016 30.55413574 -21.14082031 31.10827148 -21.72851562 31.67919922 C-23.62031897 33.50666554 -25.52471024 35.31951963 -27.4375 37.125 C-28.05326904 37.70660889 -28.66903809 38.28821777 -29.3034668 38.88745117 C-33.75805675 43 -33.75805675 43 -36 43 C-37.70815305 31.46996692 -38.23327106 19.79452495 -31.4375 9.6875 C-23.49545544 0.01373144 -11.87756502 -3.06517807 0 0 Z " fill="#F4F5F5" transform="translate(534,140)"/>
<path d="M0 0 C4.80748493 2.40374246 7.73349826 5.11830395 10 10 C11.02668319 16.20435274 10.83030639 21.49617972 7.5 26.9375 C3.51270976 32.14365385 -1.52663166 35.71550058 -8 37 C-14.53859209 37.55411797 -19.40426141 36.537417 -25 33 C-29.45017598 28.99579048 -32.59846883 24.72671118 -33.25 18.6796875 C-33.53229024 12.76923557 -32.90891131 9.48375121 -29 5 C-28.34 4.67 -27.68 4.34 -27 4 C-26.97421875 4.7734375 -26.9484375 5.546875 -26.921875 6.34375 C-26.47763887 14.50154077 -25.42940438 20.48034814 -19.625 26.4375 C-15.33124874 28.99330432 -12.33453731 29.23412935 -7.4375 28.375 C-3.41425094 26.76570038 -1.54502246 25.51811928 1 22 C1.95062902 18.93686203 2.29535741 16.19680966 2 13 C0.56348718 9.91125677 0.56348718 9.91125677 -2 8 C-4.63460948 7.12056596 -4.63460948 7.12056596 -7 7 C-6.484375 7.721875 -5.96875 8.44375 -5.4375 9.1875 C-4 12 -4 12 -4 14.625 C-5.31892152 17.75743861 -7.00414097 18.54047893 -10 20 C-14.875 17.125 -14.875 17.125 -16 16 C-16.6681048 10.84604869 -16.88455578 7.17143874 -13.6875 2.9375 C-9.37730992 -0.16984634 -5.20222995 -0.70086969 0 0 Z " fill="#EAEAEA" transform="translate(376,96)"/>
<path d="M0 0 C2.86916187 2.51051663 3.78664803 4.33149715 4.9375 7.9375 C5.01704675 11.83529079 4.15489416 13.76765877 2 17 C-0.89852582 19.41543818 -2.75136822 19.96448117 -6.5 20.5 C-10.90485712 19.8707347 -12.24544928 18.4026803 -15 15 C-16.60847182 11.78305636 -16.61309149 8.47862778 -16 5 C-11.12674689 -1.02744464 -7.3180894 -1.88811915 0 0 Z " fill="#F1F2F2" transform="translate(374,209)"/>
<path d="M0 0 C0.66 0 1.32 0 2 0 C2.20753906 0.79921875 2.41507813 1.5984375 2.62890625 2.421875 C4.36627547 8.61534184 6.33415036 13.90132613 9.75 19.375 C12.47764335 23.80815055 13.97814261 26.67455693 13 32 C12 34.9375 12 34.9375 11 37 C10.34 37 9.68 37 9 37 C1.6549727 28.79727312 -2.61336488 20.2117664 -2.23828125 9.1171875 C-1.87729257 5.90971434 -1.0393329 3.0530404 0 0 Z " fill="#EEEEEE" transform="translate(54,392)"/>
<path d="M0 0 C3.12858499 2.79035958 3.92489908 4.45551835 4.5 8.625 C4 12 4 12 2.25 13.875 C-1.875 15.9375 -1.875 15.9375 -4 16 C-7.76404043 14.15488214 -9.60669506 13.0269629 -11.125 9.0625 C-10.96450305 5.13032478 -9.74192638 3.74192638 -7 1 C-4.37869511 -0.31065245 -2.90828303 -0.415469 0 0 Z " fill="#E9EAEA" transform="translate(597,369)"/>
<path d="M0 0 C1.67542976 0.28604898 3.34385343 0.61781233 5 1 C5 2.65 5 4.3 5 6 C3.02 6.99 3.02 6.99 1 8 C0.01 7.34 -0.98 6.68 -2 6 C-1.125 1.125 -1.125 1.125 0 0 Z " fill="#D2D3D3" transform="translate(658,386)"/>
<path d="M0 0 C0.33 0 0.66 0 1 0 C1 1.65 1 3.3 1 5 C0.67 5 0.34 5 0 5 C0 3.35 0 1.7 0 0 Z " fill="#D1D2D2" transform="translate(294,471)"/>
<path d="M0 0 C0.33 0.66 0.66 1.32 1 2 C0.01 1.67 -0.98 1.34 -2 1 C-1.34 0.67 -0.68 0.34 0 0 Z " fill="#C7C8C7" transform="translate(283,481)"/>
<path d="" fill="#FFFFFF" transform="translate(0,0)"/>
<path d="" fill="#3A3E3D" transform="translate(0,0)"/>
<path d="" fill="#333534" transform="translate(0,0)"/>
<path d="" fill="#999A99" transform="translate(0,0)"/>
<path d="" fill="#383E3C" transform="translate(0,0)"/>
<path d="" fill="#333534" transform="translate(0,0)"/>
<path d="" fill="#414544" transform="translate(0,0)"/>
<path d="" fill="#363837" transform="translate(0,0)"/>
<path d="" fill="#FFFFFF" transform="translate(0,0)"/>
</svg>
